<?xml version="1.0" encoding="UTF-8"?>
<svg id="Ebene_1" data-name="Ebene 1" xmlns="http://www.w3.org/2000/svg" viewBox="0 0 311.96 311.96">
  <defs>
    <style>
      .cls-1, .cls-2 {
        stroke-width: 0px;
      }

      .cls-2 {
        fill: #fff;
      }
    </style>
  </defs>
  <path class="cls-1" d="M311.96,219.01v46h-157.97c0-8.45.31-16.27-.12-24.05-.26-4.77,1.18-8.16,4.74-11.2,2.7-2.31,4.88-5.22,7.8-8.41h-16.69v43.38h-52.85v-43.72H0C0,208.01,0,195.01,0,182.01c.64-.9,1.42-1.73,1.9-2.71,7.01-14.57,13.95-29.18,20.95-43.75,13.02-27.11,26.11-54.2,39.03-81.36,1.18-2.47,2.46-3.27,5.14-3.25,16.99.13,33.99.06,50.98.08,1.24,0,2.49.14,4.27.26-20.24,41.43-40.22,82.32-60.3,123.45h35.18v-38.47h52.88v38.94h21.14v40.19c.44.29.87.57,1.31.86,1.06-1.47,1.94-3.1,3.2-4.38,21.68-22.08,43.45-44.07,65.07-66.2,6.8-6.97,12.62-14.52,13.45-24.93.58-7.26-2.19-16.32-8.48-20.93-10.79-7.91-26.57-6.93-36.13.47-7.05,5.46-12.77,12.71-18.68,19.51-2.07,2.39-2.95,2.55-5.26.49-9.95-8.87-20.04-17.6-30.2-26.23-2.73-2.32-2.91-4.5-.83-7.15,2.53-3.22,5.14-6.38,7.59-9.66,9.42-12.56,22.46-20.17,36.85-24.99,17.5-5.86,35.63-6.89,53.92-3.26,21.78,4.32,38.96,15.14,48.67,35.57,6.57,13.82,7.49,28.58,5.48,43.8-1.93,14.63-7.65,27.35-17.32,38.14-9.35,10.43-19.33,20.3-29.17,30.28-7.07,7.17-14.39,14.1-21.59,21.14.21.36.43.73.64,1.09h72.27Z"/>
  <path class="cls-2" d="M311.96,219.01h-72.27c-.21-.36-.43-.73-.64-1.09,7.21-7.04,14.52-13.97,21.59-21.14,9.85-9.98,19.82-19.85,29.17-30.28,9.68-10.79,15.39-23.51,17.32-38.14,2.01-15.21,1.08-29.98-5.48-43.8-9.71-20.44-26.89-31.26-48.67-35.57-18.29-3.62-36.42-2.6-53.92,3.26-14.38,4.82-27.43,12.43-36.85,24.99-2.46,3.28-5.07,6.44-7.59,9.66-2.08,2.65-1.9,4.82.83,7.15,10.16,8.63,20.25,17.35,30.2,26.23,2.32,2.06,3.19,1.9,5.26-.49,5.91-6.8,11.63-14.05,18.68-19.51,9.56-7.4,25.35-8.38,36.13-.47,6.3,4.61,9.06,13.67,8.48,20.93-.83,10.41-6.64,17.97-13.45,24.93-21.62,22.14-43.4,44.12-65.07,66.2-1.25,1.28-2.14,2.91-3.2,4.38-.44-.29-.87-.57-1.31-.86v-40.19h-21.14v-38.94h-52.88v38.47h-35.18c20.09-41.12,40.07-82.02,60.3-123.45-1.79-.11-3.03-.26-4.27-.26-16.99-.01-33.99.05-50.98-.08-2.69-.02-3.97.78-5.14,3.25-12.92,27.16-26.01,54.24-39.03,81.36-7,14.58-13.95,29.18-20.95,43.75-.47.98-1.26,1.81-1.9,2.71C0,121.34,0,60.67,0,0c103.99,0,207.97,0,311.96,0v219.01Z"/>
  <path class="cls-2" d="M0,221.01h96.88v43.72h52.85v-43.38h16.69c-2.92,3.19-5.1,6.11-7.8,8.41-3.56,3.04-5,6.43-4.74,11.2.43,7.78.12,15.6.12,24.05h157.97v46.95c-103.99,0-207.97,0-311.96,0v-90.95Z"/>
</svg>